# xmcd
#
# Track frame offsets:
# 150
# 1800
# 18026
# 27434
# 39555
# 59265
# 70240
# 81926
# 89533
# 99483
# 110225
# 125211
# 134658
# 147932
#
# Disc length: 2188 seconds
# Revision: 5
# Processed by: cddbd v1.5.1PL0 Copyright (c) Steve Scherf et al.
# Submitted via: MusicBin 0.4
#
DISCID=c5088a0e
DTITLE=Magnetic Fields - Holiday
DYEAR=1993
DGENRE=Lo-Fi
TTITLE0=BBC Radiophonic Workshop
TTITLE1=Desert Island
TTITLE2=Deep Sea Diving Suit
TTITLE3=Strange Powers
TTITLE4=Torn Green Velvet Eyes
TTITLE5=The Flowers She Sent And The Flowers She Said She Sent
TTITLE6=Swinging London
TTITLE7=In My Secret Place
TTITLE8=Sad Little Moon
TTITLE9=The Trouble I've Been Looking For
TTITLE10=Sugar World
TTITLE11=All You Ever Do Is Walk Away
TTITLE12=In My Car
TTITLE13=Take Ecstasy With Me
EXTD=
EXTT0=
EXTT1=
EXTT2=
EXTT3=
EXTT4=
EXTT5=
EXTT6=
EXTT7=
EXTT8=
EXTT9=
EXTT10=
EXTT11=
EXTT12=
EXTT13=
PLAYORDER=
